# xmcd
#
# Track frame offsets: 
#        150
#        12489
#        25783
#        38376
#        51151
#        63859
#        73388
#        88005
#        99045
#        112373
#        126911
#        145815
#        163340
#        187865
#        207059
#        219274
#
# Disc length: 3301 seconds
#
# Revision: 1
# Processed by: cddbd v1.5.2PL0 Copyright (c) Steve Scherf et al.
# Submitted via: ExactAudioCopyFreeDBPlugin 1.0
#
DISCID=dd0ce310
DTITLE=Marvin Gaye - Can I Get A Witness?
DYEAR=2006
DGENRE=Soul
TTITLE0=Stubborn Kind of Fellow
TTITLE1=How Sweet it Is (To Be Loved by You)
TTITLE2=I'll Be Doggone
TTITLE3=You're All I Need to Get By
TTITLE4=Can I Get a Witness?
TTITLE5=Pride and Joy
TTITLE6=I Heard it Through the Grapevine
TTITLE7=Ain't No Mountain High Enough
TTITLE8=It Takes Two
TTITLE9=When I Feel the Need
TTITLE10=Got to Give it Up
TTITLE11=What's Going On
TTITLE12=Inner City Blues (Make Me Wanna Holler)
TTITLE13=Distant Lover
TTITLE14=Come Get to This
TTITLE15=When Did You Stop Loving Me?
EXTD=
EXTT0=
EXTT1=
EXTT2=
EXTT3=
EXTT4=
EXTT5=
EXTT6=
EXTT7=
EXTT8=
EXTT9=
EXTT10=
EXTT11=
EXTT12=
EXTT13=
EXTT14=
EXTT15=
PLAYORDER=
